<?xml version="1.0" encoding="UTF-8" standalone="no"?>
<!DOCTYPE svg PUBLIC "-//W3C//DTD SVG 1.1//EN"
 "http://www.w3.org/Graphics/SVG/1.1/DTD/svg11.dtd">
<!-- Generated by graphviz version 2.38.0 (20140413.2041)
 -->
<!-- Title: network1 Pages: 1 -->
<svg width="170pt" height="355pt"
 viewBox="0.00 0.00 170.14 355.00" xmlns="http://www.w3.org/2000/svg" xmlns:xlink="http://www.w3.org/1999/xlink">
<g id="graph0" class="graph" transform="scale(1 1) rotate(0) translate(4 351)">
<title>network1</title>
<polygon fill="white" stroke="none" points="-4,4 -4,-351 166.144,-351 166.144,4 -4,4"/>
<text text-anchor="middle" x="81.0718" y="-7.8" font-family="Times New Roman,serif" font-size="14.00">network1</text>
<!-- 9 -->
<g id="node1" class="node"><title>9</title>
<ellipse fill="none" stroke="black" cx="36.3968" cy="-257" rx="36.2938" ry="18"/>
<text text-anchor="middle" x="36.3968" y="-253.3" font-family="Times New Roman,serif" font-size="14.00">LSL_1</text>
</g>
<!-- 11 -->
<g id="node3" class="node"><title>11</title>
<ellipse fill="none" stroke="black" cx="81.3968" cy="-185" rx="37.0935" ry="18"/>
<text text-anchor="middle" x="81.3968" y="-181.3" font-family="Times New Roman,serif" font-size="14.00">LSH_1</text>
</g>
<!-- 9&#45;&gt;11 -->
<g id="edge3" class="edge"><title>9&#45;&gt;11</title>
<path fill="none" stroke="black" d="M47.0611,-239.411C52.4972,-230.955 59.2218,-220.494 65.275,-211.078"/>
<polygon fill="black" stroke="black" points="68.3455,-212.774 70.8089,-202.47 62.4572,-208.989 68.3455,-212.774"/>
</g>
<!-- 10 -->
<g id="node2" class="node"><title>10</title>
<ellipse fill="none" stroke="black" cx="126.397" cy="-257" rx="35.9954" ry="18"/>
<text text-anchor="middle" x="126.397" y="-253.3" font-family="Times New Roman,serif" font-size="14.00">PUMP</text>
</g>
<!-- 10&#45;&gt;11 -->
<g id="edge4" class="edge"><title>10&#45;&gt;11</title>
<path fill="none" stroke="black" d="M115.96,-239.765C110.529,-231.317 103.768,-220.799 97.6689,-211.312"/>
<polygon fill="black" stroke="black" points="100.441,-209.153 92.0897,-202.633 94.5532,-212.938 100.441,-209.153"/>
</g>
<!-- 12 -->
<g id="node4" class="node"><title>12</title>
<ellipse fill="none" stroke="black" cx="81.3968" cy="-113" rx="36.2938" ry="18"/>
<text text-anchor="middle" x="81.3968" y="-109.3" font-family="Times New Roman,serif" font-size="14.00">AUTO</text>
</g>
<!-- 11&#45;&gt;12 -->
<g id="edge5" class="edge"><title>11&#45;&gt;12</title>
<path fill="none" stroke="black" d="M81.3968,-166.697C81.3968,-158.983 81.3968,-149.712 81.3968,-141.112"/>
<polygon fill="black" stroke="black" points="84.8969,-141.104 81.3968,-131.104 77.8969,-141.104 84.8969,-141.104"/>
</g>
<!-- 13 -->
<g id="node5" class="node"><title>13</title>
<ellipse fill="none" stroke="black" cx="81.3968" cy="-41" rx="35.9954" ry="18"/>
<text text-anchor="middle" x="81.3968" y="-37.3" font-family="Times New Roman,serif" font-size="14.00">PUMP</text>
</g>
<!-- 12&#45;&gt;13 -->
<g id="edge6" class="edge"><title>12&#45;&gt;13</title>
<path fill="none" stroke="black" d="M81.3968,-94.6966C81.3968,-86.9827 81.3968,-77.7125 81.3968,-69.1124"/>
<polygon fill="black" stroke="black" points="84.8969,-69.1043 81.3968,-59.1043 77.8969,-69.1044 84.8969,-69.1043"/>
</g>
<!-- vn0 -->
<g id="node6" class="node"><title>vn0</title>
<ellipse fill="none" stroke="black" cx="81.3968" cy="-329" rx="27" ry="18"/>
<text text-anchor="middle" x="81.3968" y="-325.3" font-family="Times New Roman,serif" font-size="14.00">vn0</text>
</g>
<!-- vn0&#45;&gt;9 -->
<g id="edge1" class="edge"><title>vn0&#45;&gt;9</title>
<path fill="none" stroke="black" d="M71.1856,-312.116C65.6265,-303.469 58.6238,-292.575 52.3609,-282.833"/>
<polygon fill="black" stroke="black" points="55.2316,-280.826 46.8798,-274.307 49.3433,-284.611 55.2316,-280.826"/>
</g>
<!-- vn0&#45;&gt;10 -->
<g id="edge2" class="edge"><title>vn0&#45;&gt;10</title>
<path fill="none" stroke="black" d="M91.608,-312.116C97.167,-303.469 104.17,-292.575 110.433,-282.833"/>
<polygon fill="black" stroke="black" points="113.45,-284.611 115.914,-274.307 107.562,-280.826 113.45,-284.611"/>
</g>
</g>
</svg>
