<?xml version="1.0" encoding="UTF-8" standalone="no"?>
<!DOCTYPE svg PUBLIC "-//W3C//DTD SVG 1.1//EN"
 "http://www.w3.org/Graphics/SVG/1.1/DTD/svg11.dtd">
<!-- Generated by graphviz version 2.38.0 (20140413.2041)
 -->
<!-- Title: network0 Pages: 1 -->
<svg width="315pt" height="571pt"
 viewBox="0.00 0.00 315.00 571.00" xmlns="http://www.w3.org/2000/svg" xmlns:xlink="http://www.w3.org/1999/xlink">
<g id="graph0" class="graph" transform="scale(1 1) rotate(0) translate(4 567)">
<title>network0</title>
<polygon fill="white" stroke="none" points="-4,4 -4,-567 311,-567 311,4 -4,4"/>
<text text-anchor="middle" x="153.5" y="-7.8" font-family="Times New Roman,serif" font-size="14.00">network0</text>
<!-- 3 -->
<g id="node1" class="node"><title>3</title>
<ellipse fill="none" stroke="black" cx="27" cy="-401" rx="27" ry="18"/>
<text text-anchor="middle" x="27" y="-397.3" font-family="Times New Roman,serif" font-size="14.00">n1</text>
</g>
<!-- 4 -->
<g id="node2" class="node"><title>4</title>
<ellipse fill="none" stroke="black" cx="64" cy="-185" rx="27" ry="18"/>
<text text-anchor="middle" x="64" y="-181.3" font-family="Times New Roman,serif" font-size="14.00">n2</text>
</g>
<!-- 3&#45;&gt;4 -->
<g id="edge2" class="edge"><title>3&#45;&gt;4</title>
<path fill="none" stroke="black" d="M23.9466,-383.055C19.2451,-353.16 12.3155,-289.447 28,-239 31.3189,-228.325 37.5802,-217.863 43.9621,-209.093"/>
<polygon fill="black" stroke="black" points="46.9208,-210.989 50.2798,-200.941 41.3877,-206.701 46.9208,-210.989"/>
</g>
<!-- 15 -->
<g id="node13" class="node"><title>15</title>
<ellipse fill="none" stroke="black" cx="100" cy="-113" rx="27" ry="18"/>
<text text-anchor="middle" x="100" y="-109.3" font-family="Times New Roman,serif" font-size="14.00">n3</text>
</g>
<!-- 4&#45;&gt;15 -->
<g id="edge15" class="edge"><title>4&#45;&gt;15</title>
<path fill="none" stroke="black" d="M72.3496,-167.765C76.7115,-159.283 82.1469,-148.714 87.0413,-139.197"/>
<polygon fill="black" stroke="black" points="90.2346,-140.641 91.6957,-130.147 84.0096,-137.439 90.2346,-140.641"/>
</g>
<!-- 16 -->
<g id="node14" class="node"><title>16</title>
<ellipse fill="none" stroke="black" cx="172" cy="-113" rx="27" ry="18"/>
<text text-anchor="middle" x="172" y="-109.3" font-family="Times New Roman,serif" font-size="14.00">n9</text>
</g>
<!-- 4&#45;&gt;16 -->
<g id="edge18" class="edge"><title>4&#45;&gt;16</title>
<path fill="none" stroke="black" d="M82.8122,-171.807C100.002,-160.665 125.618,-144.062 144.993,-131.504"/>
<polygon fill="black" stroke="black" points="146.916,-134.429 153.403,-126.053 143.108,-128.555 146.916,-134.429"/>
</g>
<!-- 5 -->
<g id="node3" class="node"><title>5</title>
<ellipse fill="none" stroke="black" cx="127" cy="-473" rx="27" ry="18"/>
<text text-anchor="middle" x="127" y="-469.3" font-family="Times New Roman,serif" font-size="14.00">n5</text>
</g>
<!-- 11 -->
<g id="node9" class="node"><title>11</title>
<ellipse fill="none" stroke="black" cx="127" cy="-329" rx="27" ry="18"/>
<text text-anchor="middle" x="127" y="-325.3" font-family="Times New Roman,serif" font-size="14.00">n12</text>
</g>
<!-- 5&#45;&gt;11 -->
<g id="edge10" class="edge"><title>5&#45;&gt;11</title>
<path fill="none" stroke="black" d="M127,-454.871C127,-430.67 127,-386.211 127,-357.393"/>
<polygon fill="black" stroke="black" points="130.5,-357.189 127,-347.189 123.5,-357.189 130.5,-357.189"/>
</g>
<!-- vn1 -->
<g id="node17" class="node"><title>vn1</title>
<ellipse fill="none" stroke="black" cx="208" cy="-401" rx="27" ry="18"/>
<text text-anchor="middle" x="208" y="-397.3" font-family="Times New Roman,serif" font-size="14.00">vn1</text>
</g>
<!-- 5&#45;&gt;vn1 -->
<g id="edge23" class="edge"><title>5&#45;&gt;vn1</title>
<path fill="none" stroke="black" d="M143.003,-458.17C154.763,-448.008 170.936,-434.03 184.207,-422.561"/>
<polygon fill="black" stroke="black" points="186.753,-424.988 192.03,-415.801 182.176,-419.692 186.753,-424.988"/>
</g>
<!-- 6 -->
<g id="node4" class="node"><title>6</title>
<ellipse fill="none" stroke="black" cx="208" cy="-329" rx="27" ry="18"/>
<text text-anchor="middle" x="208" y="-325.3" font-family="Times New Roman,serif" font-size="14.00">n6</text>
</g>
<!-- 7 -->
<g id="node5" class="node"><title>7</title>
<ellipse fill="none" stroke="black" cx="208" cy="-257" rx="27" ry="18"/>
<text text-anchor="middle" x="208" y="-253.3" font-family="Times New Roman,serif" font-size="14.00">n7</text>
</g>
<!-- 6&#45;&gt;7 -->
<g id="edge5" class="edge"><title>6&#45;&gt;7</title>
<path fill="none" stroke="black" d="M208,-310.697C208,-302.983 208,-293.712 208,-285.112"/>
<polygon fill="black" stroke="black" points="211.5,-285.104 208,-275.104 204.5,-285.104 211.5,-285.104"/>
</g>
<!-- 10 -->
<g id="node8" class="node"><title>10</title>
<ellipse fill="none" stroke="black" cx="208" cy="-185" rx="27" ry="18"/>
<text text-anchor="middle" x="208" y="-181.3" font-family="Times New Roman,serif" font-size="14.00">n8</text>
</g>
<!-- 7&#45;&gt;10 -->
<g id="edge8" class="edge"><title>7&#45;&gt;10</title>
<path fill="none" stroke="black" d="M208,-238.697C208,-230.983 208,-221.712 208,-213.112"/>
<polygon fill="black" stroke="black" points="211.5,-213.104 208,-203.104 204.5,-213.104 211.5,-213.104"/>
</g>
<!-- 8 -->
<g id="node6" class="node"><title>8</title>
<ellipse fill="none" stroke="black" cx="280" cy="-329" rx="27" ry="18"/>
<text text-anchor="middle" x="280" y="-325.3" font-family="Times New Roman,serif" font-size="14.00">n10</text>
</g>
<!-- 9 -->
<g id="node7" class="node"><title>9</title>
<ellipse fill="none" stroke="black" cx="280" cy="-257" rx="27" ry="18"/>
<text text-anchor="middle" x="280" y="-253.3" font-family="Times New Roman,serif" font-size="14.00">n11</text>
</g>
<!-- 8&#45;&gt;9 -->
<g id="edge7" class="edge"><title>8&#45;&gt;9</title>
<path fill="none" stroke="black" d="M280,-310.697C280,-302.983 280,-293.712 280,-285.112"/>
<polygon fill="black" stroke="black" points="283.5,-285.104 280,-275.104 276.5,-285.104 283.5,-285.104"/>
</g>
<!-- 9&#45;&gt;10 -->
<g id="edge9" class="edge"><title>9&#45;&gt;10</title>
<path fill="none" stroke="black" d="M265.43,-241.834C255.25,-231.938 241.476,-218.546 229.969,-207.359"/>
<polygon fill="black" stroke="black" points="232.405,-204.846 222.796,-200.385 227.526,-209.865 232.405,-204.846"/>
</g>
<!-- 10&#45;&gt;15 -->
<g id="edge16" class="edge"><title>10&#45;&gt;15</title>
<path fill="none" stroke="black" d="M189.188,-171.807C171.998,-160.665 146.382,-144.062 127.007,-131.504"/>
<polygon fill="black" stroke="black" points="128.892,-128.555 118.597,-126.053 125.084,-134.429 128.892,-128.555"/>
</g>
<!-- 10&#45;&gt;16 -->
<g id="edge19" class="edge"><title>10&#45;&gt;16</title>
<path fill="none" stroke="black" d="M199.65,-167.765C195.288,-159.283 189.853,-148.714 184.959,-139.197"/>
<polygon fill="black" stroke="black" points="187.99,-137.439 180.304,-130.147 181.765,-140.641 187.99,-137.439"/>
</g>
<!-- 12 -->
<g id="node10" class="node"><title>12</title>
<ellipse fill="none" stroke="black" cx="64" cy="-257" rx="27" ry="18"/>
<text text-anchor="middle" x="64" y="-253.3" font-family="Times New Roman,serif" font-size="14.00">n13</text>
</g>
<!-- 11&#45;&gt;12 -->
<g id="edge11" class="edge"><title>11&#45;&gt;12</title>
<path fill="none" stroke="black" d="M113.639,-313.155C105.12,-303.689 93.9146,-291.238 84.3065,-280.563"/>
<polygon fill="black" stroke="black" points="86.6326,-277.915 77.3414,-272.824 81.4296,-282.598 86.6326,-277.915"/>
</g>
<!-- 13 -->
<g id="node11" class="node"><title>13</title>
<ellipse fill="none" stroke="black" cx="136" cy="-257" rx="27" ry="18"/>
<text text-anchor="middle" x="136" y="-253.3" font-family="Times New Roman,serif" font-size="14.00">n15</text>
</g>
<!-- 11&#45;&gt;13 -->
<g id="edge12" class="edge"><title>11&#45;&gt;13</title>
<path fill="none" stroke="black" d="M129.179,-311.055C130.17,-303.346 131.368,-294.027 132.482,-285.364"/>
<polygon fill="black" stroke="black" points="135.975,-285.64 133.779,-275.275 129.032,-284.747 135.975,-285.64"/>
</g>
<!-- 14 -->
<g id="node12" class="node"><title>14</title>
<ellipse fill="none" stroke="black" cx="136" cy="-185" rx="27" ry="18"/>
<text text-anchor="middle" x="136" y="-181.3" font-family="Times New Roman,serif" font-size="14.00">n14</text>
</g>
<!-- 12&#45;&gt;14 -->
<g id="edge13" class="edge"><title>12&#45;&gt;14</title>
<path fill="none" stroke="black" d="M78.5703,-241.834C88.7499,-231.938 102.524,-218.546 114.031,-207.359"/>
<polygon fill="black" stroke="black" points="116.474,-209.865 121.204,-200.385 111.595,-204.846 116.474,-209.865"/>
</g>
<!-- 13&#45;&gt;14 -->
<g id="edge14" class="edge"><title>13&#45;&gt;14</title>
<path fill="none" stroke="black" d="M136,-238.697C136,-230.983 136,-221.712 136,-213.112"/>
<polygon fill="black" stroke="black" points="139.5,-213.104 136,-203.104 132.5,-213.104 139.5,-213.104"/>
</g>
<!-- 14&#45;&gt;15 -->
<g id="edge17" class="edge"><title>14&#45;&gt;15</title>
<path fill="none" stroke="black" d="M127.65,-167.765C123.288,-159.283 117.853,-148.714 112.959,-139.197"/>
<polygon fill="black" stroke="black" points="115.99,-137.439 108.304,-130.147 109.765,-140.641 115.99,-137.439"/>
</g>
<!-- 14&#45;&gt;16 -->
<g id="edge20" class="edge"><title>14&#45;&gt;16</title>
<path fill="none" stroke="black" d="M144.35,-167.765C148.712,-159.283 154.147,-148.714 159.041,-139.197"/>
<polygon fill="black" stroke="black" points="162.235,-140.641 163.696,-130.147 156.01,-137.439 162.235,-140.641"/>
</g>
<!-- 17 -->
<g id="node15" class="node"><title>17</title>
<ellipse fill="none" stroke="black" cx="136" cy="-41" rx="27" ry="18"/>
<text text-anchor="middle" x="136" y="-37.3" font-family="Times New Roman,serif" font-size="14.00">n4</text>
</g>
<!-- 15&#45;&gt;17 -->
<g id="edge21" class="edge"><title>15&#45;&gt;17</title>
<path fill="none" stroke="black" d="M108.35,-95.7646C112.712,-87.2831 118.147,-76.7144 123.041,-67.1974"/>
<polygon fill="black" stroke="black" points="126.235,-68.6409 127.696,-58.1473 120.01,-65.4395 126.235,-68.6409"/>
</g>
<!-- 16&#45;&gt;17 -->
<g id="edge22" class="edge"><title>16&#45;&gt;17</title>
<path fill="none" stroke="black" d="M163.65,-95.7646C159.288,-87.2831 153.853,-76.7144 148.959,-67.1974"/>
<polygon fill="black" stroke="black" points="151.99,-65.4395 144.304,-58.1473 145.765,-68.6409 151.99,-65.4395"/>
</g>
<!-- vn0 -->
<g id="node16" class="node"><title>vn0</title>
<ellipse fill="none" stroke="black" cx="81" cy="-545" rx="27" ry="18"/>
<text text-anchor="middle" x="81" y="-541.3" font-family="Times New Roman,serif" font-size="14.00">vn0</text>
</g>
<!-- vn0&#45;&gt;3 -->
<g id="edge1" class="edge"><title>vn0&#45;&gt;3</title>
<path fill="none" stroke="black" d="M74.6998,-527.433C65.4418,-503.088 48.0689,-457.404 37.0402,-428.402"/>
<polygon fill="black" stroke="black" points="40.2534,-427.005 33.4274,-418.902 33.7105,-429.493 40.2534,-427.005"/>
</g>
<!-- vn0&#45;&gt;5 -->
<g id="edge3" class="edge"><title>vn0&#45;&gt;5</title>
<path fill="none" stroke="black" d="M91.4381,-528.116C97.2019,-519.345 104.484,-508.264 110.955,-498.416"/>
<polygon fill="black" stroke="black" points="114.036,-500.1 116.603,-489.821 108.186,-496.256 114.036,-500.1"/>
</g>
<!-- vn1&#45;&gt;6 -->
<g id="edge4" class="edge"><title>vn1&#45;&gt;6</title>
<path fill="none" stroke="black" d="M208,-382.697C208,-374.983 208,-365.712 208,-357.112"/>
<polygon fill="black" stroke="black" points="211.5,-357.104 208,-347.104 204.5,-357.104 211.5,-357.104"/>
</g>
<!-- vn1&#45;&gt;8 -->
<g id="edge6" class="edge"><title>vn1&#45;&gt;8</title>
<path fill="none" stroke="black" d="M222.57,-385.834C232.75,-375.938 246.524,-362.546 258.031,-351.359"/>
<polygon fill="black" stroke="black" points="260.474,-353.865 265.204,-344.385 255.595,-348.846 260.474,-353.865"/>
</g>
</g>
</svg>
